<?xml version="1.0" encoding="UTF-8" standalone="no"?>
<!-- Created with Inkscape (http://www.inkscape.org/) -->

<svg
   xmlns:dc="http://purl.org/dc/elements/1.1/"
   xmlns:cc="http://creativecommons.org/ns#"
   xmlns:rdf="http://www.w3.org/1999/02/22-rdf-syntax-ns#"
   xmlns:svg="http://www.w3.org/2000/svg"
   xmlns="http://www.w3.org/2000/svg"
   xmlns:xlink="http://www.w3.org/1999/xlink"
   xmlns:sodipodi="http://sodipodi.sourceforge.net/DTD/sodipodi-0.dtd"
   xmlns:inkscape="http://www.inkscape.org/namespaces/inkscape"
   width="262.20471"
   height="184.25197"
   id="svg2"
   version="1.1"
   inkscape:version="0.47 r22583"
   sodipodi:docname="ant.svg">
  <defs
     id="defs4">
    <linearGradient
       inkscape:collect="always"
       id="linearGradient21242">
      <stop
         style="stop-color:#d30000;stop-opacity:1"
         offset="0"
         id="stop21244" />
      <stop
         style="stop-color:#800000;stop-opacity:0;"
         offset="1"
         id="stop21246" />
    </linearGradient>
    <inkscape:perspective
       sodipodi:type="inkscape:persp3d"
       inkscape:vp_x="0 : 526.18109 : 1"
       inkscape:vp_y="0 : 1000 : 0"
       inkscape:vp_z="744.09448 : 526.18109 : 1"
       inkscape:persp3d-origin="372.04724 : 350.78739 : 1"
       id="perspective10" />
    <inkscape:perspective
       id="perspective11882"
       inkscape:persp3d-origin="0.5 : 0.33333333 : 1"
       inkscape:vp_z="1 : 0.5 : 1"
       inkscape:vp_y="0 : 1000 : 0"
       inkscape:vp_x="0 : 0.5 : 1"
       sodipodi:type="inkscape:persp3d" />
    <inkscape:perspective
       id="perspective18825"
       inkscape:persp3d-origin="0.5 : 0.33333333 : 1"
       inkscape:vp_z="1 : 0.5 : 1"
       inkscape:vp_y="0 : 1000 : 0"
       inkscape:vp_x="0 : 0.5 : 1"
       sodipodi:type="inkscape:persp3d" />
    <linearGradient
       id="linearGradient24451"
       inkscape:collect="always">
      <stop
         id="stop24453"
         offset="0"
         style="stop-color:#c80202;stop-opacity:1" />
      <stop
         id="stop24455"
         offset="1"
         style="stop-color:#800000;stop-opacity:0;" />
    </linearGradient>
    <linearGradient
       inkscape:collect="always"
       id="linearGradient5323-4">
      <stop
         style="stop-color:#ffffff;stop-opacity:1;"
         offset="0"
         id="stop5325-0" />
      <stop
         style="stop-color:#ffffff;stop-opacity:0;"
         offset="1"
         id="stop5327-9" />
    </linearGradient>
    <linearGradient
       inkscape:collect="always"
       id="linearGradient5361-4">
      <stop
         style="stop-color:#ffffff;stop-opacity:1;"
         offset="0"
         id="stop5363-8" />
      <stop
         style="stop-color:#ffffff;stop-opacity:0;"
         offset="1"
         id="stop5365-8" />
    </linearGradient>
    <linearGradient
       inkscape:collect="always"
       id="linearGradient5399-2">
      <stop
         style="stop-color:#ffffff;stop-opacity:1;"
         offset="0"
         id="stop5401-4" />
      <stop
         style="stop-color:#ffffff;stop-opacity:0;"
         offset="1"
         id="stop5403-5" />
    </linearGradient>
    <radialGradient
       inkscape:collect="always"
       xlink:href="#linearGradient24451"
       id="radialGradient19470"
       gradientUnits="userSpaceOnUse"
       gradientTransform="matrix(1.087319,0.56732448,-0.70072674,1.3429944,489.62438,564.5473)"
       cx="60.860363"
       cy="257.46106"
       fx="60.860363"
       fy="257.46106"
       r="15.147544" />
    <linearGradient
       inkscape:collect="always"
       xlink:href="#linearGradient5323-4"
       id="linearGradient19472"
       gradientUnits="userSpaceOnUse"
       gradientTransform="translate(314.52876,687.3826)"
       x1="91.051125"
       y1="210.19435"
       x2="56.973259"
       y2="258.07434" />
    <linearGradient
       inkscape:collect="always"
       xlink:href="#linearGradient5361-4"
       id="linearGradient19474"
       gradientUnits="userSpaceOnUse"
       gradientTransform="translate(315.35983,687.1748)"
       x1="36.82719"
       y1="235.00684"
       x2="34.073788"
       y2="256.19907" />
    <linearGradient
       inkscape:collect="always"
       xlink:href="#linearGradient5399-2"
       id="linearGradient19476"
       gradientUnits="userSpaceOnUse"
       x1="24.400772"
       y1="230.89874"
       x2="8.7499523"
       y2="260.27356" />
    <inkscape:perspective
       id="perspective19486"
       inkscape:persp3d-origin="0.5 : 0.33333333 : 1"
       inkscape:vp_z="1 : 0.5 : 1"
       inkscape:vp_y="0 : 1000 : 0"
       inkscape:vp_x="0 : 0.5 : 1"
       sodipodi:type="inkscape:persp3d" />
    <linearGradient
       inkscape:collect="always"
       xlink:href="#linearGradient20293-8"
       id="linearGradient9543"
       gradientUnits="userSpaceOnUse"
       x1="-587.20587"
       y1="-292.89215"
       x2="-664.25629"
       y2="-448.69626" />
    <linearGradient
       inkscape:collect="always"
       id="linearGradient20293-8">
      <stop
         style="stop-color:#378af4;stop-opacity:1;"
         offset="0"
         id="stop20295-2" />
      <stop
         style="stop-color:#ffffff;stop-opacity:1"
         offset="1"
         id="stop20297-7" />
    </linearGradient>
    <filter
       color-interpolation-filters="sRGB"
       inkscape:collect="always"
       id="filter8837-5">
      <feGaussianBlur
         inkscape:collect="always"
         stdDeviation="5.4964561"
         id="feGaussianBlur8839-1" />
    </filter>
    <radialGradient
       inkscape:collect="always"
       xlink:href="#linearGradient24451-7"
       id="radialGradient9545"
       gradientUnits="userSpaceOnUse"
       gradientTransform="matrix(1.087319,0.56732448,-0.70072674,1.3429944,-274.94328,-1285.2511)"
       cx="60.860363"
       cy="257.46106"
       fx="60.860363"
       fy="257.46106"
       r="15.147544" />
    <linearGradient
       id="linearGradient24451-7"
       inkscape:collect="always">
      <stop
         id="stop24453-1"
         offset="0"
         style="stop-color:#c80202;stop-opacity:1" />
      <stop
         id="stop24455-1"
         offset="1"
         style="stop-color:#800000;stop-opacity:0;" />
    </linearGradient>
    <linearGradient
       inkscape:collect="always"
       xlink:href="#linearGradient5323"
       id="linearGradient9547"
       gradientUnits="userSpaceOnUse"
       gradientTransform="translate(-450.0389,-1162.4158)"
       x1="91.051125"
       y1="210.19435"
       x2="56.973259"
       y2="258.07434" />
    <linearGradient
       inkscape:collect="always"
       id="linearGradient5323">
      <stop
         style="stop-color:#ffffff;stop-opacity:1;"
         offset="0"
         id="stop5325" />
      <stop
         style="stop-color:#ffffff;stop-opacity:0;"
         offset="1"
         id="stop5327" />
    </linearGradient>
    <linearGradient
       inkscape:collect="always"
       xlink:href="#linearGradient5361"
       id="linearGradient9549"
       gradientUnits="userSpaceOnUse"
       gradientTransform="translate(-449.20783,-1162.6236)"
       x1="36.82719"
       y1="235.00684"
       x2="34.073788"
       y2="256.19907" />
    <linearGradient
       inkscape:collect="always"
       id="linearGradient5361">
      <stop
         style="stop-color:#ffffff;stop-opacity:1;"
         offset="0"
         id="stop5363" />
      <stop
         style="stop-color:#ffffff;stop-opacity:0;"
         offset="1"
         id="stop5365" />
    </linearGradient>
    <linearGradient
       inkscape:collect="always"
       xlink:href="#linearGradient5399"
       id="linearGradient9551"
       gradientUnits="userSpaceOnUse"
       x1="24.400772"
       y1="230.89874"
       x2="8.7499523"
       y2="260.27356" />
    <linearGradient
       inkscape:collect="always"
       id="linearGradient5399">
      <stop
         style="stop-color:#ffffff;stop-opacity:1;"
         offset="0"
         id="stop5401" />
      <stop
         style="stop-color:#ffffff;stop-opacity:0;"
         offset="1"
         id="stop5403" />
    </linearGradient>
    <linearGradient
       inkscape:collect="always"
       xlink:href="#linearGradient5361"
       id="linearGradient19987"
       gradientUnits="userSpaceOnUse"
       gradientTransform="translate(88.35983,699.1748)"
       x1="36.82719"
       y1="235.00684"
       x2="34.073788"
       y2="256.19907" />
    <linearGradient
       inkscape:collect="always"
       xlink:href="#linearGradient5323"
       id="linearGradient19990"
       gradientUnits="userSpaceOnUse"
       gradientTransform="translate(87.52876,699.3826)"
       x1="91.051125"
       y1="210.19435"
       x2="56.973259"
       y2="258.07434" />
    <radialGradient
       inkscape:collect="always"
       xlink:href="#linearGradient24451-7"
       id="radialGradient19993"
       gradientUnits="userSpaceOnUse"
       gradientTransform="matrix(1.087319,0.56732448,-0.70072674,1.3429944,262.62438,576.5473)"
       cx="60.860363"
       cy="257.46106"
       fx="60.860363"
       fy="257.46106"
       r="15.147544" />
    <linearGradient
       inkscape:collect="always"
       xlink:href="#linearGradient20293-8"
       id="linearGradient20060"
       gradientUnits="userSpaceOnUse"
       x1="-587.20587"
       y1="-292.89215"
       x2="-664.25629"
       y2="-448.69626" />
    <radialGradient
       inkscape:collect="always"
       xlink:href="#linearGradient24451-7"
       id="radialGradient20132"
       gradientUnits="userSpaceOnUse"
       gradientTransform="matrix(1.087319,0.56732448,-0.70072674,1.3429944,262.62438,576.5473)"
       cx="60.860363"
       cy="257.46106"
       fx="60.860363"
       fy="257.46106"
       r="15.147544" />
    <linearGradient
       inkscape:collect="always"
       xlink:href="#linearGradient5323"
       id="linearGradient20134"
       gradientUnits="userSpaceOnUse"
       gradientTransform="translate(87.52876,699.3826)"
       x1="91.051125"
       y1="210.19435"
       x2="56.973259"
       y2="258.07434" />
    <linearGradient
       inkscape:collect="always"
       xlink:href="#linearGradient5361"
       id="linearGradient20136"
       gradientUnits="userSpaceOnUse"
       gradientTransform="translate(88.35983,699.1748)"
       x1="36.82719"
       y1="235.00684"
       x2="34.073788"
       y2="256.19907" />
    <linearGradient
       inkscape:collect="always"
       xlink:href="#linearGradient5399"
       id="linearGradient20138"
       gradientUnits="userSpaceOnUse"
       x1="24.400772"
       y1="230.89874"
       x2="8.7499523"
       y2="260.27356" />
    <linearGradient
       inkscape:collect="always"
       xlink:href="#linearGradient5361"
       id="linearGradient20400"
       gradientUnits="userSpaceOnUse"
       gradientTransform="matrix(1.3894249,0,0,1.3894249,78.804107,601.28047)"
       x1="36.82719"
       y1="235.00684"
       x2="34.073788"
       y2="256.19907" />
    <linearGradient
       inkscape:collect="always"
       xlink:href="#linearGradient5323"
       id="linearGradient20403"
       gradientUnits="userSpaceOnUse"
       gradientTransform="matrix(1.3894249,0,0,1.3894249,77.649398,601.56919)"
       x1="91.051125"
       y1="210.19435"
       x2="56.973259"
       y2="258.07434" />
    <radialGradient
       inkscape:collect="always"
       xlink:href="#linearGradient21242"
       id="radialGradient20406"
       gradientUnits="userSpaceOnUse"
       gradientTransform="matrix(1.5107481,0.78825476,-0.97360718,1.8659899,320.93161,430.89876)"
       cx="56.034851"
       cy="255.10272"
       fx="56.034851"
       fy="255.10272"
       r="15.147544" />
    <linearGradient
       inkscape:collect="always"
       xlink:href="#linearGradient5399"
       id="linearGradient21248"
       gradientUnits="userSpaceOnUse"
       x1="14.621427"
       y1="222.81393"
       x2="10.810561"
       y2="258.85562" />
  </defs>
  <sodipodi:namedview
     id="base"
     pagecolor="#ffebeb"
     bordercolor="#666666"
     borderopacity="1.0"
     inkscape:pageopacity="0"
     inkscape:pageshadow="2"
     inkscape:zoom="1"
     inkscape:cx="156.5"
     inkscape:cy="70"
     inkscape:document-units="px"
     inkscape:current-layer="layer1"
     showgrid="false"
     inkscape:window-width="1280"
     inkscape:window-height="744"
     inkscape:window-x="-4"
     inkscape:window-y="-4"
     inkscape:window-maximized="1"
     inkscape:snap-global="false" />
  <metadata
     id="metadata7">
    <rdf:RDF>
      <cc:Work
         rdf:about="">
        <dc:format>image/svg+xml</dc:format>
        <dc:type
           rdf:resource="http://purl.org/dc/dcmitype/StillImage" />
        <dc:title />
      </cc:Work>
    </rdf:RDF>
  </metadata>
  <g
     inkscape:label="Layer 1"
     inkscape:groupmode="layer"
     id="layer1"
     transform="translate(0,-868.1102)">
    <g
       id="g21250">
      <g
         transform="matrix(0.49719081,0,0.13096672,0.14207641,91.288284,1028.459)"
         id="g21167"
         style="opacity:0.59899998;filter:url(#filter8837-5)">
        <path
           style="fill:#000000;stroke:#000000;stroke-width:0.27937433px;stroke-linecap:butt;stroke-linejoin:miter;stroke-opacity:1"
           d="m 211.62444,-267.61748 c 4.59607,-24.17324 5.86339,-42.64388 20.09569,-52.50644 0.40145,-10.71071 -9.22872,-8.02745 -10.87977,-3.02842 -3.57201,10.81533 -9.38955,36.06318 -19.51972,49.64028 3.47288,-1.96286 9.81795,1.39895 10.3038,5.89458 z"
           id="path21169"
           sodipodi:nodetypes="ccscc" />
        <path
           style="fill:#000000;stroke:#000000;stroke-width:0.29381582px;stroke-linecap:butt;stroke-linejoin:miter;stroke-opacity:1"
           d="m 266.15705,-247.45957 0,1.4941 c 0.83296,0.15479 1.65635,0.30984 2.4585,0.46998 1.75516,0.35043 3.29369,4.45795 3.45326,4.27945 0.25153,0.30312 2.60737,-2.73909 6.50865,-1.24179 3.77831,1.45012 2.4773,2.81381 3.8867,5.08585 l 0.92372,-3.42355 c 6.16181,0.46933 9.08033,2.45216 10.60852,6.18415 1.61759,-3.41866 3.94531,-7.21114 -1.63427,-9.15749 -8.57776,-2.56814 -18.14514,-1.98149 -26.20508,-3.6907 z"
           id="path21171"
           sodipodi:nodetypes="ccscsccccc" />
        <path
           id="path21173"
           d="m 269.82247,-246.56242 c -1.30061,-4.26743 -8.91267,-16.5295 -21.6299,-29.75347 l -1.74234,0.63633 c 9.03641,10.35074 18.24211,24.18882 20.60116,34.29633 l 1.97096,-3.80797 c 0.97772,0.57442 1.22786,0.0322 0.80012,-1.37122 z"
           style="fill:#000000;stroke:#000000;stroke-width:0.23888311px;stroke-linecap:butt;stroke-linejoin:miter;stroke-opacity:1" />
        <path
           style="fill:#000000;stroke:#000000;stroke-width:0.34373528px;stroke-linecap:butt;stroke-linejoin:miter;stroke-opacity:1"
           d="m 249.62236,-274.89443 c -0.2203,-6.41559 -6.23942,-26.29176 -18.9969,-49.40414 l -2.65858,0.23633 c 8.71001,17.74926 16.358,40.40893 15.87693,55.33602 l 4.15626,-4.55988 c 1.14536,1.16218 1.69475,0.50156 1.62229,-1.60833 z"
           id="path21175" />
      </g>
      <path
         transform="matrix(0.49719081,0,0.13096672,0.14207641,91.288284,1028.459)"
         id="path21177"
         d="m 133.34079,-260.74286 c -0.72005,-0.02 -1.31356,0.13113 -1.7687,0.46608 l -3.82419,1.52967 c 10.00102,5.99125 26.85557,11.98247 24.85725,17.97371 -8.65965,8.55093 -16.69236,20.22516 -30.21112,22.94516 6.35762,2.70997 11.58978,7.13508 16.70694,12.02229 l -0.46607,9.40511 6.63258,-3.39397 c 0.39236,0.38294 0.78705,0.76529 1.18311,1.14726 l 0.45412,6.63257 3.872,-2.60521 c 0.84797,0.75332 1.71161,1.49621 2.59327,2.22279 l 0.33463,4.97147 3.25055,-2.18695 c 0.57944,0.41877 1.1704,0.82977 1.76869,1.23089 2.64516,2.70853 3.19829,7.29535 5.35387,11.47258 1.09768,-6.02899 0.23504,-9.77096 -1.72088,-12.23742 -4.81397,-4.4749 -10.11436,-7.98116 -15.09361,-11.67572 l 0.16731,-0.0837 -1.91209,-1.23092 c -5.63122,-4.32535 -10.70139,-9.08245 -13.94635,-16.07352 12.10048,-8.53767 26.80564,-17.90885 26.76933,-22.56274 -8.98898,-11.35107 -19.96036,-19.82425 -25.00064,-19.96945 z"
         style="opacity:0.59899998;fill:#000000;stroke:#000000;stroke-width:0.38241911px;stroke-linecap:butt;stroke-linejoin:miter;stroke-opacity:1;filter:url(#filter8837-5)" />
      <path
         transform="matrix(0.49719081,0,0.13096672,0.14207641,91.288284,1028.459)"
         sodipodi:nodetypes="csc"
         id="path21179"
         d="m 160.25189,-281.14298 c -1.43217,-2.88011 46.74058,-51.59974 80.40195,15.52825 24.64372,49.14482 -97.64882,22.92037 -80.40195,-15.52825 z"
         style="opacity:0.59899998;fill:#000000;stroke:#000000;stroke-width:0.39905873px;stroke-linecap:butt;stroke-linejoin:miter;stroke-opacity:1;filter:url(#filter8837-5)" />
      <path
         transform="matrix(0.49719081,0,0.13096672,0.14207641,91.288284,1028.459)"
         sodipodi:nodetypes="ccc"
         id="path21181"
         d="m 38.278892,-270.17482 c 13.632646,-23.29728 40.4075,-24.20938 48.410821,-9.68585 10.312382,35.79683 -75.438896,48.93967 -48.410821,9.68585 z"
         style="opacity:0.59899998;fill:#000000;stroke:#000000;stroke-width:0.30880901px;stroke-linecap:butt;stroke-linejoin:miter;stroke-opacity:1;filter:url(#filter8837-5)" />
      <path
         transform="matrix(0.32287919,0,0.04207866,0.04564814,-49.007019,981.11974)"
         d="m 540.00806,184.36218 c 0,19.3322 -76.26991,63.36666 -93.01209,53.70056 -16.74218,-9.6661 -16.74218,-97.73502 0,-107.40112 16.74218,-9.6661 93.01209,34.36836 93.01209,53.70056 z"
         inkscape:randomized="0"
         inkscape:rounded="0.18"
         inkscape:flatsided="true"
         sodipodi:arg2="1.0471976"
         sodipodi:arg1="0"
         sodipodi:r2="31.004032"
         sodipodi:r1="62.008064"
         sodipodi:cy="184.36218"
         sodipodi:cx="478"
         sodipodi:sides="3"
         id="path21183"
         style="opacity:0.59899998;fill:#000000;fill-opacity:1;fill-rule:evenodd;stroke:none;filter:url(#filter8837-5)"
         sodipodi:type="star" />
      <path
         transform="matrix(0.19304635,0,0.05085099,0.0551646,17.388414,973.73846)"
         sodipodi:type="arc"
         style="opacity:0.59899998;fill:#000000;fill-opacity:1;fill-rule:evenodd;stroke:none;filter:url(#filter8837-5)"
         id="path21185"
         sodipodi:cx="511.5"
         sodipodi:cy="286.36218"
         sodipodi:rx="14.5"
         sodipodi:ry="21"
         d="m 526,286.36218 c 0,11.59798 -6.49187,21 -14.5,21 -8.00813,0 -14.5,-9.40202 -14.5,-21 0,-11.59798 6.49187,-21 14.5,-21 8.00813,0 14.5,9.40202 14.5,21 z" />
      <path
         transform="matrix(0.19304635,0,0.05085099,0.0551646,20.091068,973.73846)"
         d="m 526,286.36218 c 0,11.59798 -6.49187,21 -14.5,21 -8.00813,0 -14.5,-9.40202 -14.5,-21 0,-11.59798 6.49187,-21 14.5,-21 8.00813,0 14.5,9.40202 14.5,21 z"
         sodipodi:ry="21"
         sodipodi:rx="14.5"
         sodipodi:cy="286.36218"
         sodipodi:cx="511.5"
         id="path21187"
         style="opacity:0.59899998;fill:#000000;fill-opacity:1;fill-rule:evenodd;stroke:none;filter:url(#filter8837-5)"
         sodipodi:type="arc" />
      <rect
         transform="matrix(0.49719081,0,0.13096672,0.14207641,91.288284,1028.459)"
         ry="4.3928213"
         rx="1.170964"
         y="-279.39774"
         x="72.407005"
         height="10.871675"
         width="29.120564"
         id="rect21189"
         style="opacity:0.59899998;fill:#000000;fill-opacity:1;fill-rule:evenodd;stroke:none;filter:url(#filter8837-5)" />
      <path
         sodipodi:type="arc"
         style="opacity:0.59899998;fill:#000000;fill-opacity:1;fill-rule:evenodd;stroke:none;filter:url(#filter8837-5)"
         id="path21191"
         sodipodi:cx="348"
         sodipodi:cy="565.86218"
         sodipodi:rx="17"
         sodipodi:ry="28.5"
         d="m 365,565.86218 c 0,15.74012 -7.61116,28.5 -17,28.5 -9.38884,0 -17,-12.75988 -17,-28.5 0,-15.74011 7.61116,-28.5 17,-28.5 9.38884,0 17,12.75989 17,28.5 z"
         transform="matrix(0.13643955,-0.05293164,0.23402484,0.05293164,-61.978871,978.78488)" />
      <path
         transform="matrix(0.23517254,-0.01937432,0.13445169,0.07230596,-47.677117,956.38874)"
         d="m 365,565.86218 c 0,15.74012 -7.61116,28.5 -17,28.5 -9.38884,0 -17,-12.75988 -17,-28.5 0,-15.74011 7.61116,-28.5 17,-28.5 9.38884,0 17,12.75989 17,28.5 z"
         sodipodi:ry="28.5"
         sodipodi:rx="17"
         sodipodi:cy="565.86218"
         sodipodi:cx="348"
         id="path21193"
         style="opacity:0.59899998;fill:#000000;fill-opacity:1;fill-rule:evenodd;stroke:none;filter:url(#filter8837-5)"
         sodipodi:type="arc" />
      <path
         transform="matrix(0.49719081,0,0.13096672,0.14207641,91.288284,1028.459)"
         sodipodi:nodetypes="cccc"
         id="path21195"
         d="m 42.832694,-259.95138 c -14.070178,4.45726 -14.943577,12.69653 -13.556074,19.81273 4.776673,-9.85539 11.744737,-10.61223 18.978505,-6.67376 l -5.422431,-13.13897 z"
         style="opacity:0.59899998;fill:#000000;stroke:#000000;stroke-width:0.20855507px;stroke-linecap:butt;stroke-linejoin:miter;stroke-opacity:1;filter:url(#filter8837-5)" />
      <path
         transform="matrix(0.49719081,0,0.13096672,0.14207641,91.288284,1028.459)"
         style="opacity:0.59899998;fill:#000000;stroke:#000000;stroke-width:0.16554072px;stroke-linecap:butt;stroke-linejoin:miter;stroke-opacity:1;filter:url(#filter8837-5)"
         d="m -9.6027667,-313.61359 c 18.9018937,-5.4424 31.4730937,-17.88628 55.4708797,-15.97601 7.170665,1.46909 4.531267,30.88975 20.239124,49.73065 l 10.172893,8.35135 c -4.79914,-2.92383 -7.777259,-1.93062 -16.328777,-12.92579 -11.924404,-34.8937 -7.40403,-25.17 -13.7578,-39.93135 -13.025337,-10.56984 -53.9268964,12.71003 -53.1686168,17.99353 -2.4962877,-1.85722 -6.5480132,-3.17979 -2.6277029,-7.24238 z"
         id="path21197"
         sodipodi:nodetypes="cccccccc" />
      <path
         transform="matrix(0.49719081,0,0.13096672,0.14207641,91.288284,1028.459)"
         sodipodi:nodetypes="cccccccc"
         id="path21199"
         d="m 6.9815822,-310.54468 c 22.1928058,0.889 43.2302998,-5.96051 65.1316968,2.60528 5.905208,3.31696 -17.583002,27.35992 -15.761276,47.7993 l 3.919151,9.99026 c -2.571663,-3.85628 -6.164835,-3.88189 -6.631594,-15.63158 13.26544,-32.8788 10.729457,-23.36955 15.072173,-37.65797 -5.105688,-12.68762 -61.3117246,-4.91171 -64.3354214,-0.23677 -1.0983766,-2.2895 -4.08470463,-4.57898 2.6052706,-6.86846 z"
         style="opacity:0.59899998;fill:#000000;stroke:#000000;stroke-width:0.16747297px;stroke-linecap:butt;stroke-linejoin:miter;stroke-opacity:1;filter:url(#filter8837-5)" />
      <path
         transform="matrix(0.49719081,0,0.13096672,0.14207641,91.288284,1028.459)"
         style="opacity:0.59899998;fill:#000000;stroke:#000000;stroke-width:0.17369843px;stroke-linecap:butt;stroke-linejoin:miter;stroke-opacity:1;filter:url(#filter8837-5)"
         d="m 72.208291,-250.70168 c 15.609531,-1.27548 21.379031,-1.78451 28.494029,-11.19825 1.53371,14.9101 -28.70615,11.73539 -27.205351,20.68607 -3.14548,-2.77362 -4.872023,-6.12213 -1.288678,-9.48782 z"
         id="path21201"
         sodipodi:nodetypes="cccc" />
      <path
         transform="matrix(0.49719081,0,0.13096672,0.14207641,91.288284,1028.459)"
         style="opacity:0.59899998;fill:#000000;stroke:#000000;stroke-width:0.1591621px;stroke-linecap:butt;stroke-linejoin:miter;stroke-opacity:1;filter:url(#filter8837-5)"
         d="m 76.061273,-248.43908 -3.451093,0.0189 c -10.145437,7.72831 -14.779532,15.55117 -18.219512,22.48293 1.961923,-0.3133 2.851019,5.1121 2.167556,7.49718 0.534168,-1.034 1.349331,-4.56412 1.889942,-5.66445 1.182418,-0.37889 3.807263,-3.59355 6.333261,-7.86931 2.748752,-4.6528 4.390377,-8.88111 3.842498,-9.79005 2.135714,-2.64091 4.567577,-4.95573 7.437348,-6.67528 z"
         id="path21203"
         sodipodi:nodetypes="cccccscc" />
      <path
         transform="matrix(0.49719081,0,0.13096672,0.14207641,91.288284,1028.459)"
         style="opacity:0.59899998;fill:#000000;stroke:#000000;stroke-width:0.12504958px;stroke-linecap:butt;stroke-linejoin:miter;stroke-opacity:1;filter:url(#filter8837-5)"
         d="m 31.508219,-207.69753 c 12.469467,-15.2798 27.209696,-22.32709 25.443085,-19.5839 l 1.750399,1.29471 c -6.145237,0.94723 -15.526337,7.27924 -21.11075,12.58149 -0.470243,0.44649 0.01392,2.55424 -0.07839,2.49967 -0.0079,0.17839 -0.617111,-1.61904 -1.49305,-0.30164 -0.848336,1.27588 -0.968956,2.48734 -0.877485,3.74636 l -1.883011,-0.80585 c -1.830164,1.22326 -0.720754,0.87701 -1.2104,3.73361 -0.08562,-1.19313 -1.83913,-1.36856 -0.540393,-3.16445 z"
         id="path21205"
         sodipodi:nodetypes="cccscscccc" />
      <path
         transform="matrix(0.49719081,0,0.13096672,0.14207641,91.288284,1028.459)"
         sodipodi:nodetypes="cccc"
         id="path21207"
         d="m 70.506163,-231.25369 c 26.179792,-8.67051 35.843997,-11.92076 44.910817,-26.5697 7.45149,17.35744 -45.097894,27.31706 -39.636396,37.47207 -6.258968,-1.92319 -10.287082,-5.19041 -5.274421,-10.90237 z"
         style="opacity:0.59899998;fill:#000000;stroke:#000000;stroke-width:0.25830683px;stroke-linecap:butt;stroke-linejoin:miter;stroke-opacity:1;filter:url(#filter8837-5)" />
      <path
         transform="matrix(0.49719081,0,0.13096672,0.14207641,91.288284,1028.459)"
         sodipodi:nodetypes="cccccscc"
         id="path21209"
         d="m 75.202282,-227.52186 -4.050924,1.54018 c -8.534199,13.55239 -10.544256,24.79197 -11.541701,34.45824 2.169857,-1.2314 5.601829,4.75902 5.846957,7.86499 0.173511,-1.45114 -0.420297,-5.96187 -0.268369,-7.49386 1.224138,-0.96573 2.897661,-5.90134 3.988233,-12.04157 1.186737,-6.68167 1.257959,-12.37712 0.21375,-13.20525 1.350537,-4.04563 3.192848,-7.83797 5.812054,-11.12273 z"
         style="opacity:0.59899998;fill:#000000;stroke:#000000;stroke-width:0.19986975px;stroke-linecap:butt;stroke-linejoin:miter;stroke-opacity:1;filter:url(#filter8837-5)" />
      <path
         transform="matrix(0.49719081,0,0.13096672,0.14207641,91.288284,1028.459)"
         sodipodi:nodetypes="cccscscccc"
         id="path21211"
         d="m 26.359238,-175.1628 c 19.364911,-15.4391 39.328792,-20.17082 36.431552,-17.27358 l 1.804197,2.05424 c -7.793901,-0.47069 -20.990342,4.80747 -29.253363,9.83083 -0.695804,0.42299 -0.661763,3.13854 -0.760555,3.04702 -0.05703,0.21687 -0.327106,-2.15106 -1.752279,-0.76701 -1.380277,1.34045 -1.850285,2.79523 -2.072639,4.36476 l -2.096877,-1.48947 c -2.571297,1.01491 -1.117674,0.8848 -2.477813,4.26061 0.212011,-1.4871 -1.893479,-2.16844 0.177777,-4.0274 z"
         style="opacity:0.59899998;fill:#000000;stroke:#000000;stroke-width:0.15703253px;stroke-linecap:butt;stroke-linejoin:miter;stroke-opacity:1;filter:url(#filter8837-5)" />
      <g
         transform="matrix(0.45509811,0,0.11987894,0.13004807,40.846533,1024.3958)"
         id="g21213"
         style="opacity:0.59899998;filter:url(#filter8837-5)">
        <path
           style="fill:#000000;stroke:#000000;stroke-width:0.2752468px;stroke-linecap:butt;stroke-linejoin:miter;stroke-opacity:1"
           d="m 268.25102,-214.21869 c 3.34096,0.58451 6.51289,1.95349 9.70208,3.57133 l 1.565,7.14294 3.42606,-4.52421 c 0.31689,0.16601 0.62812,0.3318 0.94713,0.49594 l 1.58438,4.80037 1.88585,-3.11682 c 0.6701,0.30392 1.33257,0.5852 2.01835,0.8587 l 1.18827,3.60025 1.58237,-2.60667 c 0.43915,0.13604 0.86906,0.2693 1.31641,0.38629 2.16123,1.21386 3.4164,4.45111 5.56426,6.90652 -0.50697,-4.81999 -1.78864,-7.34009 -3.47771,-8.58274 -3.84408,-1.87098 -7.78497,-2.87544 -11.57775,-4.1155 l 0.0888,-0.11589 -1.42213,-0.33434 c -3.79069,-1.32716 -7.37816,-3.04046 -10.47914,-6.29164 l -3.91229,1.92536 z"
           id="path21215" />
        <path
           sodipodi:nodetypes="ccccc"
           id="path21217"
           d="m 246.6816,-226.29762 c -0.20562,2.80115 1.71282,3.36791 2.84492,4.63972 3.89053,3.54557 7.85911,7.15042 13.19905,8.18111 2.83363,0.8299 5.95126,1.06434 9.15202,1.05076 0.90698,-1.46899 1.77309,-3.49622 1.24628,-4.49429 -4.89263,1.18845 -9.64351,1.57446 -13.39169,-0.11405 -3.20127,-1.21746 -5.62609,-3.79441 -7.62618,-6.86074 -0.97717,-1.38018 -1.92939,-2.79302 -2.86266,-4.23058 -0.83467,0.51907 -1.72681,0.53533 -2.5302,1.63201 l -0.0288,0.17911 -0.002,0.017 z"
           style="fill:#000000;stroke:#000000;stroke-width:0.28375891px;stroke-linecap:butt;stroke-linejoin:miter;stroke-opacity:1" />
        <path
           style="fill:#000000;stroke:#000000;stroke-width:0.39839801px;stroke-linecap:butt;stroke-linejoin:miter;stroke-opacity:1"
           d="m 236.08152,-260.08717 c 5.56465,4.32374 5.8969,20.75026 7.41081,34.44353 3.28644,3.37533 6.30475,5.2767 7.20593,-4.46047 -7.46667,-9.18598 -4.77204,-21.41083 -6.45315,-32.32706 -2.90173,-1.46303 -5.84806,-3.48011 -8.16359,2.344 z"
           id="path21219"
           sodipodi:nodetypes="ccccc" />
      </g>
      <path
         transform="matrix(0.49719081,0,0.13096672,0.14207641,91.288284,1028.459)"
         id="path21221"
         d="m 195.01067,-256.6913 c -6.51934,1.5205 -28.16619,0.85808 -54.90138,-5.70997 l -0.48403,-2.74097 c 20.23617,3.94937 45.12794,5.49589 60.02655,0.9577 l -3.46236,5.42306 c 1.48118,0.83758 0.96525,1.57013 -1.17876,2.07017 z"
         style="opacity:0.59899998;fill:#000000;stroke:#000000;stroke-width:0.35845652px;stroke-linecap:butt;stroke-linejoin:miter;stroke-opacity:1;filter:url(#filter8837-5)" />
      <path
         transform="matrix(0.49719081,0,0.13096672,0.14207641,91.288284,1028.459)"
         style="opacity:0.59899998;fill:#000000;stroke:#000000;stroke-width:0.26294464px;stroke-linecap:butt;stroke-linejoin:miter;stroke-opacity:1;filter:url(#filter8837-5)"
         d="m 282.30503,-198.96651 -0.32078,1.57 c 0.57621,0.28703 1.14531,0.57318 1.6978,0.86138 1.20889,0.63058 1.45274,5.17673 1.60777,5.01304 0.11874,0.35618 2.49571,-2.48847 5.02858,-0.3319 2.45303,2.08859 1.20836,3.32707 1.75165,5.92523 l 1.41086,-3.45937 c 4.40746,1.4143 6.11703,3.9341 6.43387,8.08413 1.91748,-3.35053 4.43473,-6.98768 0.77039,-9.86699 -5.72442,-3.98088 -12.85023,-4.79463 -18.38021,-7.7955 z"
         id="path21223"
         sodipodi:nodetypes="ccscsccccc" />
      <path
         transform="matrix(0.49719081,0,0.13096672,0.14207641,91.288284,1028.459)"
         id="path21225"
         d="m 284.17819,-197.0259 c -2.62197,-4.20422 -14.31295,-15.17078 -31.75718,-25.70176 l -1.68627,1.18349 c 12.66958,8.50666 26.52322,20.70585 31.95945,30.87104 l 1.01981,-4.65175 c 1.21401,0.33519 1.32651,-0.31838 0.46419,-1.70102 z"
         style="opacity:0.59899998;fill:#000000;stroke:#000000;stroke-width:0.26531282px;stroke-linecap:butt;stroke-linejoin:miter;stroke-opacity:1;filter:url(#filter8837-5)" />
      <path
         transform="matrix(0.49719081,0,0.13096672,0.14207641,91.288284,1028.459)"
         style="opacity:0.59899998;fill:#000000;stroke:#000000;stroke-width:0.4312613px;stroke-linecap:butt;stroke-linejoin:miter;stroke-opacity:1;filter:url(#filter8837-5)"
         d="m 258.32426,-220.58414 c -3.81485,-7.09317 -21.6355,-26.10161 -48.83423,-45.00334 l -2.85884,1.74382 c 19.66469,15.12016 40.86499,36.35355 48.62329,53.40971 l 2.13932,-7.4394 c 1.93438,0.67031 2.18498,-0.37815 0.9304,-2.7109 z"
         id="path21227" />
      <path
         transform="matrix(0.49719081,0,0.16589118,0.17996345,108.04147,1044.1544)"
         d="m 142.48202,-298.91888 c 0,2.92893 -2.29522,5.3033 -5.12652,5.3033 -2.8313,0 -5.12652,-2.37437 -5.12652,-5.3033 0,-2.92894 2.29522,-5.30331 5.12652,-5.30331 2.8313,0 5.12652,2.37437 5.12652,5.30331 z"
         sodipodi:ry="5.3033009"
         sodipodi:rx="5.126524"
         sodipodi:cy="-298.91888"
         sodipodi:cx="137.3555"
         id="path21229"
         style="opacity:0.59899998;fill:#000000;fill-opacity:1;fill-rule:evenodd;stroke:none;filter:url(#filter8837-5)"
         sodipodi:type="arc" />
      <g
         id="g21235"
         transform="matrix(0.49306571,0,0,0.49306571,62.835822,1091.8429)">
        <path
           sodipodi:nodetypes="ccscc"
           id="path21237"
           d="m 211.62444,-267.61748 c 4.59607,-24.17324 5.86339,-42.64388 20.09569,-52.50644 0.40145,-10.71071 -9.22872,-8.02745 -10.87977,-3.02842 -3.57201,10.81533 -9.38955,36.06318 -19.51972,49.64028 3.47288,-1.96286 9.81795,1.39895 10.3038,5.89458 z"
           style="fill:#000000;stroke:#000000;stroke-width:0.27937433px;stroke-linecap:butt;stroke-linejoin:miter;stroke-opacity:1" />
        <path
           sodipodi:nodetypes="ccscsccccc"
           id="path21239"
           d="m 266.15705,-247.45957 0,1.4941 c 0.83296,0.15479 1.65635,0.30984 2.4585,0.46998 1.75516,0.35043 3.29369,4.45795 3.45326,4.27945 0.25153,0.30312 2.60737,-2.73909 6.50865,-1.24179 3.77831,1.45012 2.4773,2.81381 3.8867,5.08585 l 0.92372,-3.42355 c 6.16181,0.46933 9.08033,2.45216 10.60852,6.18415 1.61759,-3.41866 3.94531,-7.21114 -1.63427,-9.15749 -8.57776,-2.56814 -18.14514,-1.98149 -26.20508,-3.6907 z"
           style="fill:#000000;stroke:#000000;stroke-width:0.29381582px;stroke-linecap:butt;stroke-linejoin:miter;stroke-opacity:1" />
        <path
           style="fill:#000000;stroke:#000000;stroke-width:0.23888311px;stroke-linecap:butt;stroke-linejoin:miter;stroke-opacity:1"
           d="m 269.82247,-246.56242 c -1.30061,-4.26743 -8.91267,-16.5295 -21.6299,-29.75347 l -1.74234,0.63633 c 9.03641,10.35074 18.24211,24.18882 20.60116,34.29633 l 1.97096,-3.80797 c 0.97772,0.57442 1.22786,0.0322 0.80012,-1.37122 z"
           id="path21241" />
        <path
           id="path21243"
           d="m 249.62236,-274.89443 c -0.2203,-6.41559 -6.23942,-26.29176 -18.9969,-49.40414 l -2.65858,0.23633 c 8.71001,17.74926 16.358,40.40893 15.87693,55.33602 l 4.15626,-4.55988 c 1.14536,1.16218 1.69475,0.50156 1.62229,-1.60833 z"
           style="fill:#000000;stroke:#000000;stroke-width:0.34373528px;stroke-linecap:butt;stroke-linejoin:miter;stroke-opacity:1" />
      </g>
      <path
         style="fill:#000000;stroke:#000000;stroke-width:0.18855776px;stroke-linecap:butt;stroke-linejoin:miter;stroke-opacity:1"
         d="m 128.58155,963.27952 c -0.355,-0.01 -0.64761,0.0646 -0.87201,0.22981 l -1.88559,0.75422 c 4.93107,2.95409 13.2415,5.90814 12.25626,8.86223 -4.26984,4.21617 -8.2304,9.97233 -14.89602,11.31346 3.13468,1.3362 5.71442,3.51807 8.23762,5.92779 l -0.22981,4.63733 3.27029,-1.67345 c 0.19341,0.18882 0.38806,0.37734 0.58328,0.56567 l 0.22397,3.27029 1.90907,-1.28454 c 0.41808,0.37144 0.84394,0.73773 1.27869,1.096 l 0.16506,2.45125 1.60271,-1.07831 c 0.28566,0.20649 0.57702,0.40913 0.872,0.6069 1.30425,1.33553 1.577,3.59713 2.63991,5.65673 0.54118,-2.9727 0.11532,-4.81771 -0.84853,-6.03383 -2.37369,-2.20642 -4.98706,-3.93524 -7.44217,-5.7569 l 0.082,-0.0413 -0.94286,-0.60693 c -2.77649,-2.13268 -5.27648,-4.47824 -6.8764,-7.92529 5.96633,-4.20964 13.2169,-8.83025 13.19898,-11.12492 -4.43213,-5.59682 -9.84172,-9.77466 -12.32698,-9.84625 z"
         id="path21245" />
      <path
         style="fill:#000000;stroke:#000000;stroke-width:0.19676217px;stroke-linecap:butt;stroke-linejoin:miter;stroke-opacity:1"
         d="m 141.85055,953.22092 c -0.7061,-1.42009 23.04612,-25.44207 39.64349,7.65645 12.15094,24.23161 -48.14732,11.30125 -39.64349,-7.65645 z"
         id="path21247"
         sodipodi:nodetypes="csc" />
      <path
         style="fill:#000000;stroke:#000000;stroke-width:0.15226313px;stroke-linecap:butt;stroke-linejoin:miter;stroke-opacity:1"
         d="m 81.709825,958.62894 c 6.721802,-11.48709 19.923565,-11.93682 23.869655,-4.77576 5.08474,17.65019 -37.196268,24.13047 -23.869655,4.77576 z"
         id="path21249"
         sodipodi:nodetypes="ccc" />
      <path
         sodipodi:type="star"
         style="fill:#000000;fill-opacity:1;fill-rule:evenodd;stroke:none"
         id="path21251"
         sodipodi:sides="3"
         sodipodi:cx="478"
         sodipodi:cy="184.36218"
         sodipodi:r1="62.008064"
         sodipodi:r2="31.004032"
         sodipodi:arg1="0"
         sodipodi:arg2="1.0471976"
         inkscape:flatsided="true"
         inkscape:rounded="0.18"
         inkscape:randomized="0"
         d="m 540.00806,184.36218 c 0,19.3322 -76.26991,63.36666 -93.01209,53.70056 -16.74218,-9.6661 -16.74218,-97.73502 0,-107.40112 16.74218,-9.6661 93.01209,34.36836 93.01209,53.70056 z"
         transform="matrix(0.32020033,0,0,0.15841849,-33.019935,927.55529)" />
      <path
         d="m 526,286.36218 c 0,11.59798 -6.49187,21 -14.5,21 -8.00813,0 -14.5,-9.40202 -14.5,-21 0,-11.59798 6.49187,-21 14.5,-21 8.00813,0 14.5,9.40202 14.5,21 z"
         sodipodi:ry="21"
         sodipodi:rx="14.5"
         sodipodi:cy="286.36218"
         sodipodi:cx="511.5"
         id="path21253"
         style="fill:#000000;fill-opacity:1;fill-rule:evenodd;stroke:none"
         sodipodi:type="arc"
         transform="matrix(0.19144467,0,0,0.19144467,39.572278,901.93915)" />
      <path
         sodipodi:type="arc"
         style="fill:#000000;fill-opacity:1;fill-rule:evenodd;stroke:none"
         id="path21255"
         sodipodi:cx="511.5"
         sodipodi:cy="286.36218"
         sodipodi:rx="14.5"
         sodipodi:ry="21"
         d="m 526,286.36218 c 0,11.59798 -6.49187,21 -14.5,21 -8.00813,0 -14.5,-9.40202 -14.5,-21 0,-11.59798 6.49187,-21 14.5,-21 8.00813,0 14.5,9.40202 14.5,21 z"
         transform="matrix(0.19144467,0,0,0.19144467,42.252506,901.93915)" />
      <rect
         style="fill:#000000;fill-opacity:1;fill-rule:evenodd;stroke:none"
         id="rect21257"
         width="14.358351"
         height="5.3604498"
         x="98.537216"
         y="954.08142"
         rx="0.57736224"
         ry="2.1659496" />
      <path
         transform="matrix(0.18369537,-0.18369537,0.18369537,0.18369537,-43.749727,919.45234)"
         d="m 365,565.86218 c 0,15.74012 -7.61116,28.5 -17,28.5 -9.38884,0 -17,-12.75988 -17,-28.5 0,-15.74011 7.61116,-28.5 17,-28.5 9.38884,0 17,12.75989 17,28.5 z"
         sodipodi:ry="28.5"
         sodipodi:rx="17"
         sodipodi:cy="565.86218"
         sodipodi:cx="348"
         id="path21259"
         style="fill:#000000;fill-opacity:1;fill-rule:evenodd;stroke:none"
         sodipodi:type="arc" />
      <path
         sodipodi:type="arc"
         style="fill:#000000;fill-opacity:1;fill-rule:evenodd;stroke:none"
         id="path21261"
         sodipodi:cx="348"
         sodipodi:cy="565.86218"
         sodipodi:rx="17"
         sodipodi:ry="28.5"
         d="m 365,565.86218 c 0,15.74012 -7.61116,28.5 -17,28.5 -9.38884,0 -17,-12.75988 -17,-28.5 0,-15.74011 7.61116,-28.5 17,-28.5 9.38884,0 17,12.75989 17,28.5 z"
         transform="matrix(0.25093254,-0.06723717,0.06723717,0.25093254,-9.0930519,841.7282)" />
      <path
         style="fill:#000000;stroke:#000000;stroke-width:0.10283135px;stroke-linecap:butt;stroke-linejoin:miter;stroke-opacity:1"
         d="m 83.95515,963.66977 c -6.937524,2.19772 -7.368162,6.26022 -6.684037,9.76898 2.355214,-4.85935 5.790928,-5.23254 9.357651,-3.29061 l -2.673614,-6.47837 z"
         id="path21263"
         sodipodi:nodetypes="cccc" />
      <path
         sodipodi:nodetypes="cccccccc"
         id="path21265"
         d="m 58.101023,937.21077 c 9.319873,-2.68345 15.518306,-8.81911 27.350787,-7.87722 3.535614,0.72436 2.234223,15.23068 9.979225,24.52047 l 5.015905,4.11777 c -2.366299,-1.44164 -3.834699,-0.95192 -8.051159,-6.37326 -5.879518,-17.20489 -3.650672,-12.41047 -6.783506,-19.68878 -6.422339,-5.21162 -26.589494,6.26688 -26.215613,8.87199 -1.230836,-0.91572 -3.228607,-1.56784 -1.295639,-3.57097 z"
         style="fill:#000000;stroke:#000000;stroke-width:0.08162246px;stroke-linecap:butt;stroke-linejoin:miter;stroke-opacity:1" />
      <path
         style="fill:#000000;stroke:#000000;stroke-width:0.08257519px;stroke-linecap:butt;stroke-linejoin:miter;stroke-opacity:1"
         d="m 66.278205,938.72395 c 10.942513,0.43834 21.315376,-2.93892 32.114209,1.28457 2.911646,1.63549 -8.669581,13.49024 -7.771346,23.5682 l 1.932399,4.92586 c -1.268003,-1.9014 -3.039673,-1.91403 -3.269817,-7.70741 6.540731,-16.2114 5.290332,-11.52272 7.431575,-18.56785 -2.517443,-6.25583 -30.230718,-2.4218 -31.721599,-0.11672 -0.54157,-1.12886 -2.014027,-2.25773 1.284579,-3.38659 z"
         id="path21267"
         sodipodi:nodetypes="cccccccc" />
      <path
         sodipodi:nodetypes="cccc"
         id="path21269"
         d="m 98.439251,968.23047 c 7.696549,-0.62889 10.541259,-0.87988 14.049419,-5.52146 0.75627,7.35165 -14.154001,5.78631 -13.414007,10.19959 -1.550932,-1.36757 -2.402232,-3.01861 -0.635412,-4.67813 z"
         style="fill:#000000;stroke:#000000;stroke-width:0.08564473px;stroke-linecap:butt;stroke-linejoin:miter;stroke-opacity:1" />
      <path
         sodipodi:nodetypes="cccccscc"
         id="path21271"
         d="m 100.33903,969.34608 -1.701619,0.01 c -5.00236,3.81057 -7.287283,7.66775 -8.98341,11.08557 0.967345,-0.15448 1.405737,2.5206 1.068746,3.69659 0.263379,-0.50982 0.665298,-2.25041 0.931859,-2.79294 0.583017,-0.18682 1.877238,-1.77186 3.122719,-3.88009 1.355314,-2.29414 2.164738,-4.37897 1.894606,-4.82714 1.053045,-1.30214 2.252104,-2.4435 3.667099,-3.29134 z"
         style="fill:#000000;stroke:#000000;stroke-width:0.07847737px;stroke-linecap:butt;stroke-linejoin:miter;stroke-opacity:1" />
      <path
         sodipodi:nodetypes="cccscscccc"
         id="path21273"
         d="m 78.37144,989.43435 c 6.148275,-7.53395 13.416176,-11.00872 12.545117,-9.65614 l 0.863056,0.63837 c -3.030003,0.46705 -7.655495,3.58915 -10.408974,6.2035 -0.231867,0.22016 0.0069,1.2594 -0.03863,1.2325 -0.0042,0.0879 -0.304284,-0.79829 -0.736173,-0.14872 -0.418287,0.62909 -0.477768,1.22642 -0.432667,1.8472 l -0.928442,-0.39734 c -0.902389,0.60314 -0.355373,0.43242 -0.596813,1.84091 -0.04224,-0.58828 -0.906808,-0.67479 -0.26645,-1.56028 z"
         style="fill:#000000;stroke:#000000;stroke-width:0.06165766px;stroke-linecap:butt;stroke-linejoin:miter;stroke-opacity:1" />
      <path
         style="fill:#000000;stroke:#000000;stroke-width:0.12736225px;stroke-linecap:butt;stroke-linejoin:miter;stroke-opacity:1"
         d="m 97.599997,977.81962 c 12.908323,-4.27514 17.673503,-5.87772 22.143973,-13.10061 3.67406,8.55835 -22.236217,13.46911 -19.54334,18.47619 -3.086084,-0.94826 -5.072212,-2.55921 -2.600633,-5.37558 z"
         id="path21275"
         sodipodi:nodetypes="cccc" />
      <path
         style="fill:#000000;stroke:#000000;stroke-width:0.09854892px;stroke-linecap:butt;stroke-linejoin:miter;stroke-opacity:1"
         d="m 99.915487,979.65966 -1.997367,0.7594 c -4.207929,6.68222 -5.19902,12.22408 -5.690821,16.99018 1.069885,-0.60716 2.762066,2.34651 2.882932,3.87796 0.08559,-0.7155 -0.207233,-2.93959 -0.132273,-3.69497 0.60358,-0.47617 1.428731,-2.90975 1.966453,-5.93729 0.585142,-3.29449 0.620253,-6.10273 0.105457,-6.51105 0.665896,-1.99476 1.574274,-3.86463 2.865717,-5.48423 z"
         id="path21277"
         sodipodi:nodetypes="cccccscc" />
      <path
         style="fill:#000000;stroke:#000000;stroke-width:0.07742736px;stroke-linecap:butt;stroke-linejoin:miter;stroke-opacity:1"
         d="m 75.832655,1005.4761 c 9.548184,-7.61249 19.391675,-9.94553 17.963152,-8.517 l 0.889593,1.01287 c -3.842913,-0.23207 -10.349617,2.37043 -14.423842,4.84723 -0.343077,0.2086 -0.326292,1.5475 -0.374992,1.5024 -0.02807,0.107 -0.161284,-1.0606 -0.864,-0.3782 -0.680554,0.661 -0.91231,1.3782 -1.021936,2.1521 l -1.033899,-0.7344 c -1.267822,0.5004 -0.551087,0.4363 -1.221735,2.1008 0.104485,-0.7333 -0.93361,-1.0692 0.08767,-1.9858 z"
         id="path21279"
         sodipodi:nodetypes="cccscscccc" />
      <g
         id="g21281"
         transform="matrix(0.45132225,0,0,0.45132225,16.527082,1077.7415)">
        <path
           id="path21283"
           d="m 268.25102,-214.21869 c 3.34096,0.58451 6.51289,1.95349 9.70208,3.57133 l 1.565,7.14294 3.42606,-4.52421 c 0.31689,0.16601 0.62812,0.3318 0.94713,0.49594 l 1.58438,4.80037 1.88585,-3.11682 c 0.6701,0.30392 1.33257,0.5852 2.01835,0.8587 l 1.18827,3.60025 1.58237,-2.60667 c 0.43915,0.13604 0.86906,0.2693 1.31641,0.38629 2.16123,1.21386 3.4164,4.45111 5.56426,6.90652 -0.50697,-4.81999 -1.78864,-7.34009 -3.47771,-8.58274 -3.84408,-1.87098 -7.78497,-2.87544 -11.57775,-4.1155 l 0.0888,-0.11589 -1.42213,-0.33434 c -3.79069,-1.32716 -7.37816,-3.04046 -10.47914,-6.29164 l -3.91229,1.92536 z"
           style="fill:#000000;stroke:#000000;stroke-width:0.2752468px;stroke-linecap:butt;stroke-linejoin:miter;stroke-opacity:1" />
        <path
           style="fill:#000000;stroke:#000000;stroke-width:0.28375891px;stroke-linecap:butt;stroke-linejoin:miter;stroke-opacity:1"
           d="m 246.6816,-226.29762 c -0.20562,2.80115 1.71282,3.36791 2.84492,4.63972 3.89053,3.54557 7.85911,7.15042 13.19905,8.18111 2.83363,0.8299 5.95126,1.06434 9.15202,1.05076 0.90698,-1.46899 1.77309,-3.49622 1.24628,-4.49429 -4.89263,1.18845 -9.64351,1.57446 -13.39169,-0.11405 -3.20127,-1.21746 -5.62609,-3.79441 -7.62618,-6.86074 -0.97717,-1.38018 -1.92939,-2.79302 -2.86266,-4.23058 -0.83467,0.51907 -1.72681,0.53533 -2.5302,1.63201 l -0.0288,0.17911 -0.002,0.017 z"
           id="path21285"
           sodipodi:nodetypes="ccccc" />
        <path
           sodipodi:nodetypes="ccccc"
           id="path21287"
           d="m 236.08152,-260.08717 c 5.56465,4.32374 5.8969,20.75026 7.41081,34.44353 3.28644,3.37533 6.30475,5.2767 7.20593,-4.46047 -7.46667,-9.18598 -4.77204,-21.41083 -6.45315,-32.32706 -2.90173,-1.46303 -5.84806,-3.48011 -8.16359,2.344 z"
           style="fill:#000000;stroke:#000000;stroke-width:0.39839801px;stroke-linecap:butt;stroke-linejoin:miter;stroke-opacity:1" />
      </g>
      <path
         sodipodi:nodetypes="ccscsccccc"
         id="path21291"
         d="m 202.03071,993.73931 -0.15811,0.77412 c 0.28414,0.14153 0.56466,0.28261 0.83713,0.42472 0.59606,0.31091 0.71625,2.55247 0.79266,2.47176 0.0584,0.17561 1.23062,-1.22699 2.47943,-0.16365 1.2095,1.0298 0.59579,1.64046 0.86367,2.92154 l 0.69568,-1.70571 c 2.1732,0.69734 3.01617,1.93981 3.17234,3.98601 0.9455,-1.652 2.18668,-3.44539 0.37987,-4.86508 -2.82248,-1.96283 -6.33606,-2.36407 -9.06267,-3.84369 z"
         style="fill:#000000;stroke:#000000;stroke-width:0.12964898px;stroke-linecap:butt;stroke-linejoin:miter;stroke-opacity:1" />
      <path
         style="fill:#000000;stroke:#000000;stroke-width:0.13081665px;stroke-linecap:butt;stroke-linejoin:miter;stroke-opacity:1"
         d="m 202.9544,994.69617 c -1.29286,-2.07297 -7.0573,-7.48019 -15.6584,-12.67265 l -0.83143,0.58353 c 6.24686,4.19434 13.07768,10.20934 15.75802,15.22145 l 0.50284,-2.29362 c 0.59856,0.16527 0.65414,-0.15698 0.22897,-0.83871 z"
         id="path21293" />
      <path
         sodipodi:type="arc"
         style="fill:#000000;fill-opacity:1;fill-rule:evenodd;stroke:none"
         id="path21297"
         sodipodi:cx="137.3555"
         sodipodi:cy="-298.91888"
         sodipodi:rx="5.126524"
         sodipodi:ry="5.3033009"
         d="m 142.48202,-298.91888 c 0,2.92893 -2.29522,5.3033 -5.12652,5.3033 -2.8313,0 -5.12652,-2.37437 -5.12652,-5.3033 0,-2.92894 2.29522,-5.30331 5.12652,-5.30331 2.8313,0 5.12652,2.37437 5.12652,5.30331 z"
         transform="matrix(0.49306571,0,0,0.62454992,65.102043,1146.3123)" />
      <path
         style="fill:url(#radialGradient20406);fill-opacity:1;stroke:none"
         d="m 143.05741,954.01131 c -0.66887,-1.34508 21.8287,-24.09812 37.54921,7.252 11.50916,22.95162 -45.60385,10.70428 -37.54921,-7.252 z"
         id="path21299"
         sodipodi:nodetypes="csc" />
      <path
         style="fill:url(#linearGradient20403);fill-opacity:1;stroke:none"
         d="m 161.18565,945.70562 c -3.14177,0.0283 -6.01718,1.14419 -8.33363,2.50006 0,0.01 0.0139,0.0322 0,0.0361 -17.11952,6.75749 5.9045,13.01441 23.76875,19.38454 2.45025,-1.54068 3.27682,-4.29251 1.12321,-8.58716 -5.16157,-10.29342 -11.2114,-13.38175 -16.55833,-13.33367 l 0,1.1e-4 z"
         id="path21301"
         sodipodi:nodetypes="ccscscc" />
      <path
         style="fill:url(#linearGradient20400);fill-opacity:1;stroke:none"
         d="m 111.71323,949.16697 c -3.24528,-0.33595 -2.77968,5.41005 -1.44333,8.66029 13.45005,6.60621 28.24339,-1.38295 21.36199,-4.04147 -6.79707,-2.62599 -11.74953,-3.77316 -19.91866,-4.61882 z"
         id="path21303"
         sodipodi:nodetypes="ccss" />
      <path
         sodipodi:type="arc"
         style="fill:url(#linearGradient21248);fill-opacity:1;stroke:none"
         id="path21305"
         sodipodi:cx="10.205825"
         sodipodi:cy="256.3078"
         sodipodi:rx="5.5670075"
         sodipodi:ry="3.3553398"
         d="m 15.772832,256.3078 c 0,1.8531 -2.492434,3.35534 -5.567007,3.35534 -3.0745735,0 -5.5670077,-1.50224 -5.5670077,-3.35534 0,-1.8531 2.4924342,-3.35534 5.5670077,-3.35534 3.074573,0 5.567007,1.50224 5.567007,3.35534 z"
         transform="matrix(1.5941499,-0.80725337,0.80725337,1.5941499,-129.79132,556.55821)" />
      <path
         style="fill:#000000;stroke:#000000;stroke-width:0.17674263px;stroke-linecap:butt;stroke-linejoin:miter;stroke-opacity:1"
         d="m 158.98883,965.27721 c -3.21443,0.7497 -13.88772,0.42308 -27.06989,-2.81539 l -0.2387,-1.35148 c 9.97774,1.94729 26.98972,1.99905 34.33561,-0.23858 0.99969,-0.44462 2.08608,-1.29394 2.47873,1.09438 0.73028,0.41298 -8.44853,3.0645 -9.50561,3.31105 l -1.4e-4,2e-5 z"
         id="path21289"
         sodipodi:nodetypes="ccccccc" />
      <path
         id="path21295"
         d="m 190.20671,983.08041 c -1.881,-3.4974 -10.66773,-12.86981 -24.0786,-22.1896 l -1.40957,0.85982 c 9.69597,7.45522 20.14916,17.92467 23.97453,26.33449 l 1.05485,-3.66811 c 0.9537,0.3305 1.07736,-0.18646 0.45865,-1.33666 z"
         style="fill:#000000;stroke:#000000;stroke-width:0.21264017px;stroke-linecap:butt;stroke-linejoin:miter;stroke-opacity:1" />
    </g>
  </g>
</svg>
